{"title":"Evil Dead 2013 1080p x264 AC3 - alrmothe","uid":8651218,"size":7334725379,"categoryP":"video","categoryS":"hd___movies","magnet":"?xt=urn:btih:05498f5059c27d5962219bc6f9f43bf1d7c53f03&amp;dn=Evil+Dead+2013+1080p+x264+AC3+-+alrmothe&amp;tr=udp%3A%2F%2Ftracker.openbittorrent.com%3A80&amp;tr=udp%3A%2F%2Fopen.demonii.com%3A1337&amp;tr=udp%3A%2F%2Ftracker.coppersurfer.tk%3A6969&amp;tr=udp%3A%2F%2Fexodus.desync.com%3A6969","seeders":1,"leechers":0,"uploader":".alrmothe","files":20,"time":1373110230,"description":"***************************************************************\n\nEvil Dead 2013 1080p x264 AC3 - alrmothe\n\n***************************************************************\n\nTitle : Evil Dead \nYEAR: 2013\nGENRE :  Horror    \nimdb URL :http://www.imdb.com/title/tt1288558/\nFormat: Matroska\nOverall bit rate:10.7 Mbps\nFormat version: Version 4 / Version 2\nFile size:  6.83 GiB\nDuration: 1mn 31s\n\n***************************************************************\n\nVideo\nFormat : AVC \nFormat/Info : Advanced Video Codec \nFormat profile : &lt;a class=&quot;__cf_email__&quot; href=&quot;/cdn-cgi/l/email-protection&quot; data-cfemail=&quot;ce86a7a9a68e82fae0ff&quot;&gt;[email&amp;#160;protected]&lt;/a&gt;&lt;script cf-hash='f9e31' type=&quot;text/javascript&quot;&gt;\n/* &lt;![CDATA[ */!function(){try{var t=&quot;currentScript&quot;in document?document.currentScript:function(){for(var t=document.getElementsByTagName(&quot;script&quot;),e=t.length;e--;)if(t[e].getAttribute(&quot;cf-hash&quot;))return t[e]}();if(t&amp;&amp;t.previousSibling){var e,r,n,i,c=t.previousSibling,a=c.getAttribute(&quot;data-cfemail&quot;);if(a){for(e=&quot;&quot;,r=parseInt(a.substr(0,2),16),n=2;a.length-n;n+=2)i=parseInt(a.substr(n,2),16)^r,e+=String.fromCharCode(i);e=document.createTextNode(e),c.parentNode.replaceChild(e,c)}}}catch(u){}}();/* ]]&gt; */&lt;/script&gt; \nFormat settings, CABAC : Yes \nFormat settings, ReFrames : 4 frames  \nCodec ID : V_MPEG4/ISO/AVC  \nBit rate :10.1 Mbps \nWidth : 1920 pixels \nHeight :804 pixels \nDisplay aspect ratio : 2.40:1 \nFrame rate : 23.976 fps \nColor space : YUV \nChroma subsampling : 4:2:0 \nBit depth : 8 bits \nScan type : Progressive \nBits/(Pixel*Frame) : 0.272 \nStream size: 6.29 GiB \n\n\nAudio#1 \nFormat: AC3\nBit rate :640 Kbps\nChannel(s) : 6 channels\nChannel positions:Front: L C R, Side: L R, LFE\nSampling rate: 48.0 KHz\nBit depth: 16bits\nCompression mode: Lossy\nStream size: 418 GiB\nLanguage : English\n\n\nsub : Arabic,English\n\n***************************************************************\nFormat : PGS\nCodec ID : S_HDMV/PGS\nCodec ID/Info : The same subtitle format used on BDs/HD-DVDs\nLanguage : English\nDefault : No\nForced : No\n\n\nScreenshots &lt;a href=&quot;\nhttp://img40.imageshack.us/img40/1613/xhqt.png&quot; rel=&quot;nofollow&quot; target=&quot;_NEW&quot;&gt;\nhttp://img40.imageshack.us/img40/1613/xhqt.png&lt;/a&gt; &lt;a href=&quot;\nhttp://img819.imageshack.us/img819/6881/naup.png&quot; rel=&quot;nofollow&quot; target=&quot;_NEW&quot;&gt;\nhttp://img819.imageshack.us/img819/6881/naup.png&lt;/a&gt; &lt;a href=&quot;\nhttp://img819.imageshack.us/img819/6858/qg2.png&quot; rel=&quot;nofollow&quot; target=&quot;_NEW&quot;&gt;\nhttp://img819.imageshack.us/img819/6858/qg2.png&lt;/a&gt; &lt;a href=&quot;\nhttp://img707.imageshack.us/img707/2722/j1ey.png&quot; rel=&quot;nofollow&quot; target=&quot;_NEW&quot;&gt;\nhttp://img707.imageshack.us/img707/2722/j1ey.png&lt;/a&gt; &lt;a href=&quot;\nhttp://img268.imageshack.us/img268/7846/fpnt.png&quot; rel=&quot;nofollow&quot; target=&quot;_NEW&quot;&gt;\nhttp://img268.imageshack.us/img268/7846/fpnt.png&lt;/a&gt; &lt;a href=&quot;\nhttp://img14.imageshack.us/img14/6858/55a.png&quot; rel=&quot;nofollow&quot; target=&quot;_NEW&quot;&gt;\nhttp://img14.imageshack.us/img14/6858/55a.png&lt;/a&gt; &lt;a href=&quot;\nhttp://img844.imageshack.us/img844/341/b93g.png&quot; rel=&quot;nofollow&quot; target=&quot;_NEW&quot;&gt;\nhttp://img844.imageshack.us/img844/341/b93g.png&lt;/a&gt;","torrent":{"xt":"urn:btih:05498f5059c27d5962219bc6f9f43bf1d7c53f03","amp;dn":"Evil+Dead+2013+1080p+x264+AC3+-+alrmothe","amp;tr":["udp%3A%2F%2Ftracker.openbittorrent.com%3A80","udp%3A%2F%2Fopen.demonii.com%3A1337","udp%3A%2F%2Ftracker.coppersurfer.tk%3A6969","udp%3A%2F%2Fexodus.desync.com%3A6969"],"infoHash":"05498f5059c27d5962219bc6f9f43bf1d7c53f03","infoHashBuffer":{"type":"Buffer","data":[5,73,143,80,89,194,125,89,98,33,155,198,249,244,59,241,215,197,63,3]},"announce":[],"urlList":[]}}